<svg width="321" height="31" viewBox="0 0 321 31" fill="none" xmlns="http://www.w3.org/2000/svg">
<path d="M23.7344 21.9688C23.7344 23.2604 23.401 24.2552 22.7344 24.9531C22.0677 25.651 21.0573 26 19.7031 26H3.45312V16.9688H0.765625V14.3594H3.45312V5.51562H19.7031C21.0573 5.51562 22.0677 5.86458 22.7344 6.5625C23.401 7.26042 23.7344 8.25521 23.7344 9.54688V21.9688ZM17.7188 9.23438C17.7188 8.50521 17.3594 8.14062 16.6406 8.14062L9.46875 8.17188V14.3594H14.7188V16.9688H9.46875V23.375H16.6406C17.0052 23.375 17.276 23.2969 17.4531 23.1406C17.6302 22.974 17.7188 22.6875 17.7188 22.2812V9.23438ZM49.9531 26H43.4844L40.9375 20.1719H31.625L29.0938 26H26.2188L35.3906 5.51562H40.6406L49.9531 26ZM39.75 17.5469L36.2656 9.8125L32.8281 17.5469H39.75ZM41.8594 0.6875H41.9219C41.8177 1.8125 41.4531 2.67708 40.8281 3.28125C40.2031 3.875 39.2344 4.17188 37.9219 4.17188C37.2448 4.17188 36.6615 4.09375 36.1719 3.9375C35.6927 3.77083 35.2917 3.53646 34.9688 3.23438C34.6562 2.93229 34.4115 2.56771 34.2344 2.14062C34.0677 1.70312 33.9635 1.21875 33.9219 0.6875H35.4531C35.6302 1.80208 36.4427 2.35938 37.8906 2.35938C39.3385 2.35938 40.151 1.80208 40.3281 0.6875H41.8594ZM71.8125 26H65.7344V9.40625C65.7344 8.4375 65.2448 7.96875 64.2656 8H60.2969C59.8698 8 59.4896 8.03646 59.1562 8.10938C58.8125 8.17188 58.6094 8.34896 58.5469 8.64062C58.526 8.78646 58.5052 8.92188 58.4844 9.04688C58.474 9.17188 58.4688 9.29167 58.4688 9.40625V26H52.375V5.51562H58.2344H60.2344H67.8594C70.4948 5.51562 71.8125 7.28125 71.8125 10.8125V26ZM94.8281 26H89.4844V24.2031H89.4062C89.3229 24.8385 89.0938 25.2969 88.7188 25.5781C88.3542 25.8594 87.7865 26 87.0156 26H78.5625C77.2188 26 76.2083 25.651 75.5312 24.9531C74.8646 24.2448 74.5312 23.25 74.5312 21.9688V9.54688C74.5312 8.28646 74.8646 7.30208 75.5312 6.59375C76.2083 5.875 77.2188 5.51562 78.5625 5.51562H94.1875V8.14062H81.6406C80.9115 8.14062 80.5469 8.50521 80.5469 9.23438V22.2812C80.5469 22.6771 80.6354 22.9583 80.8125 23.125C81 23.2917 81.276 23.375 81.6406 23.375H88.1406C88.7135 23.375 89 23.099 89 22.5469V16.4062H84.1719V13.7812H94.8281V26ZM130.078 26H123.359L118.406 15.9844L115.266 19.3125V26H109.25V5.51562H115.266V15.3125L124.969 5.51562H128.422L122.656 11.9219L130.078 26ZM153.844 5.51562L146.25 17.3281V26H139.984V17.2031L132.344 5.51562H139.344L145.047 14.3594L150.641 5.51562H153.844ZM148.578 0.375L145.094 3.85938H142.719L144.922 0.375H148.578ZM187.25 26H181.172V9.40625C181.172 8.4375 180.682 7.96875 179.703 8H175.734C175.307 8 174.927 8.03646 174.594 8.10938C174.25 8.17188 174.047 8.34896 173.984 8.64062C173.964 8.78646 173.943 8.92188 173.922 9.04688C173.911 9.17188 173.906 9.29167 173.906 9.40625V26H167.812V5.51562H173.672H175.672H183.297C185.932 5.51562 187.25 7.28125 187.25 10.8125V26ZM210.094 26H204.078V16.9688H195.984V26H189.969V5.51562H195.984V14.3594H204.078V5.51562H210.094V26ZM236.328 26H229.859L227.312 20.1719H218L215.469 26H212.594L221.766 5.51562H227.016L236.328 26ZM226.125 17.5469L222.641 9.8125L219.203 17.5469H226.125ZM228.391 4.20312H225.703L224.172 2.25L222.641 4.20312H219.953L222.672 0.71875H225.672L228.391 4.20312ZM225.922 30.2656H221.75V27.5781H225.922V30.2656ZM258.188 26H252.109V9.40625C252.109 8.4375 251.62 7.96875 250.641 8H246.672C246.245 8 245.865 8.03646 245.531 8.10938C245.188 8.17188 244.984 8.34896 244.922 8.64062C244.901 8.78646 244.88 8.92188 244.859 9.04688C244.849 9.17188 244.844 9.29167 244.844 9.40625V26H238.75V5.51562H244.609H246.609H254.234C256.87 5.51562 258.188 7.28125 258.188 10.8125V26ZM290.266 8.14062H283.953V26H277.938V8.14062H271.641V5.51562H290.266V8.14062ZM298.359 26H292.344V5.51562H298.359V26ZM320.594 26H314.516V9.40625C314.516 8.4375 314.026 7.96875 313.047 8H309.078C308.651 8 308.271 8.03646 307.938 8.10938C307.594 8.17188 307.391 8.34896 307.328 8.64062C307.307 8.78646 307.286 8.92188 307.266 9.04688C307.255 9.17188 307.25 9.29167 307.25 9.40625V26H301.156V5.51562H307.016H309.016H316.641C319.276 5.51562 320.594 7.28125 320.594 10.8125V26Z" fill="#F5F5F5"/>
</svg>
