<svg width="303" height="31" viewBox="0 0 303 31" fill="none" xmlns="http://www.w3.org/2000/svg">
<path d="M19.2656 8.14062H12.9531V26H6.9375V8.14062H0.640625V5.51562H19.2656V8.14062ZM41.6406 21.9688C41.6406 23.2604 41.3073 24.2552 40.6406 24.9531C39.974 25.651 38.9635 26 37.6094 26H25.375C24.0312 26 23.0208 25.651 22.3438 24.9531C21.6771 24.2448 21.3438 23.25 21.3438 21.9688V9.54688C21.3438 8.28646 21.6771 7.30208 22.3438 6.59375C23.0208 5.875 24.0312 5.51562 25.375 5.51562H37.6094C38.9635 5.51562 39.974 5.86458 40.6406 6.5625C41.3073 7.26042 41.6406 8.25521 41.6406 9.54688V21.9688ZM35.625 9.23438C35.625 8.50521 35.2604 8.14062 34.5312 8.14062H28.4531C27.724 8.14062 27.3594 8.50521 27.3594 9.23438V22.2812C27.3594 22.6771 27.4479 22.9583 27.625 23.125C27.8125 23.2917 28.0885 23.375 28.4531 23.375H34.5312C35.2604 23.375 35.625 23.0104 35.625 22.2812V9.23438ZM67.8594 26H61.3906L58.8438 20.1719H49.5312L47 26H44.125L53.2969 5.51562H58.5469L67.8594 26ZM57.6562 17.5469L54.1719 9.8125L50.7344 17.5469H57.6562ZM58.6094 4.07812H56.2812L52.75 0.59375H56.4062L58.6094 4.07812ZM89.7188 26H83.6406V9.40625C83.6406 8.4375 83.151 7.96875 82.1719 8H78.2031C77.776 8 77.3958 8.03646 77.0625 8.10938C76.7188 8.17188 76.5156 8.34896 76.4531 8.64062C76.4323 8.78646 76.4115 8.92188 76.3906 9.04688C76.3802 9.17188 76.375 9.29167 76.375 9.40625V26H70.2812V5.51562H76.1406H78.1406H85.7656C88.401 5.51562 89.7188 7.28125 89.7188 10.8125V26ZM121.797 8.14062H115.484V26H109.469V8.14062H103.172V5.51562H121.797V8.14062ZM144 26H137.984V16.9688H129.891V26H123.875V5.51562H129.891V14.3594H137.984V5.51562H144V26ZM152.922 26H146.906V5.51562H152.922V26ZM152.094 30.5469H147.938V27.8594H152.094V30.5469ZM175.156 26H169.078V9.40625C169.078 8.4375 168.589 7.96875 167.609 8H163.641C163.214 8 162.833 8.03646 162.5 8.10938C162.156 8.17188 161.953 8.34896 161.891 8.64062C161.87 8.78646 161.849 8.92188 161.828 9.04688C161.818 9.17188 161.812 9.29167 161.812 9.40625V26H155.719V5.51562H161.578H163.578H171.203C173.839 5.51562 175.156 7.28125 175.156 10.8125V26ZM198 26H191.984V16.9688H183.891V26H177.875V5.51562H183.891V14.3594H191.984V5.51562H198V26ZM232.531 14.7031C232.531 17.4115 230.953 18.7656 227.797 18.7656H218.453V26H212.438V5.51562H227.797C230.953 5.51562 232.531 6.86979 232.531 9.57812V14.7031ZM226.719 9.84375C226.719 9.20833 226.609 8.76562 226.391 8.51562C226.172 8.26562 225.776 8.14062 225.203 8.14062H218.453V16.1406H225.203C225.766 16.1406 226.156 16.0208 226.375 15.7812C226.604 15.5312 226.719 15.0885 226.719 14.4531V9.84375ZM255.531 26H249.516V16.9688H241.422V26H235.406V5.51562H241.422V14.3594H249.516V5.51562H255.531V26ZM281.766 26H275.297L272.75 20.1719H263.438L260.906 26H258.031L267.203 5.51562H272.453L281.766 26ZM271.562 17.5469L268.078 9.8125L264.641 17.5469H271.562ZM273.281 0.375L269.797 3.85938H267.438L269.641 0.375H273.281ZM302.109 8.14062H295.797V26H289.781V8.14062H283.484V5.51562H302.109V8.14062Z" fill="#C50608"/>
</svg>
