<svg width="41" height="21" viewBox="0 0 41 21" fill="none" xmlns="http://www.w3.org/2000/svg">
<path d="M15.3008 20.6787H11.293V19.3311H11.2344C11.1719 19.8076 11 20.1514 10.7188 20.3623C10.4453 20.5732 10.0195 20.6787 9.44141 20.6787H3.10156C2.09375 20.6787 1.33594 20.417 0.828125 19.8936C0.328125 19.3623 0.078125 18.6162 0.078125 17.6553V8.33887C0.078125 7.39355 0.328125 6.65527 0.828125 6.12402C1.33594 5.58496 2.09375 5.31543 3.10156 5.31543H14.8203V7.28418H5.41016C4.86328 7.28418 4.58984 7.55762 4.58984 8.10449V17.8896C4.58984 18.1865 4.65625 18.3975 4.78906 18.5225C4.92969 18.6475 5.13672 18.71 5.41016 18.71H10.2852C10.7148 18.71 10.9297 18.5029 10.9297 18.0889V13.4834H7.30859V11.5146H15.3008V20.6787ZM35.0938 6.52246C35.0938 7.60059 34.9375 8.28418 34.625 8.57324C34.3281 8.8623 33.6133 9.00684 32.4805 9.00684H32.3984V18.0654C32.3984 18.417 32.3281 18.7529 32.1875 19.0732C32.0469 19.3857 31.8516 19.6631 31.6016 19.9053C31.3594 20.1396 31.0742 20.3271 30.7461 20.4678C30.4258 20.6084 30.082 20.6787 29.7148 20.6787H20.1641C19.8047 20.6943 19.4609 20.6318 19.1328 20.4912C18.8047 20.3428 18.5156 20.1475 18.2656 19.9053C18.0234 19.6553 17.8281 19.374 17.6797 19.0615C17.5312 18.7412 17.4609 18.4092 17.4688 18.0654V5.31543H21.9805V18.0654C21.9805 18.4951 22.2227 18.71 22.707 18.71H29.6094C30.0938 18.71 30.3359 18.4951 30.3359 18.0654V5.31543H32.3984V8.02246C32.7422 8.01465 32.9648 7.96777 33.0664 7.88184C33.168 7.78809 33.2188 7.53418 33.2188 7.12012V5.31543H35.0938V6.52246ZM28.543 1.19043V2.44434C28.543 2.68652 28.4648 2.85449 28.3086 2.94824C28.1602 3.04199 27.8867 3.08887 27.4883 3.08887H26.8672C26.6719 3.08887 26.5742 3.18262 26.5742 3.37012V4.09668H25.0391V2.74902C25.0391 2.41309 25.2461 2.24512 25.6602 2.24512H26.6445C26.8242 2.24512 26.9141 2.15137 26.9141 1.96387V1.37793C26.9141 1.22168 26.8008 1.14355 26.5742 1.14355H24.7344V0.299805H27.4883C27.8945 0.299805 28.1719 0.366211 28.3203 0.499023C28.4688 0.624023 28.543 0.854492 28.543 1.19043ZM40.6836 20.6787H36.1719V5.31543H40.6836V20.6787Z" fill="#BC131A"/>
</svg>
